<svg width="637" height="599" viewBox="0 0 637 599" fill="none" xmlns="http://www.w3.org/2000/svg">
<rect y="394" width="637" height="205" rx="90" fill="#D7E3FF"/>
<rect x="78" y="241" width="162" height="213" rx="50" fill="#D7E3FF"/>
<rect x="382" y="241" width="178" height="213" rx="50" fill="#D7E3FF"/>
<rect y="73" width="637" height="205" rx="90" fill="#D7E3FF"/>
<path d="M169 347.5C169 406.318 216.682 454 275.5 454H341.5C400.318 454 448 406.318 448 347.5V347.5C448 288.682 400.318 241 341.5 241H275.5C216.682 241 169 288.682 169 347.5V347.5Z" fill="#6572D2"/>
<path d="M78 147.5C78 128.446 93.4462 113 112.5 113H159.5C178.554 113 194 128.446 194 147.5V147.5C194 166.554 178.554 182 159.5 182H112.5C93.4462 182 78 166.554 78 147.5V147.5Z" fill="#1731F6" fill-opacity="0.3"/>
<path d="M438 140.5C438 121.446 453.446 106 472.5 106H519.5C538.554 106 554 121.446 554 140.5V140.5C554 159.554 538.554 175 519.5 175H472.5C453.446 175 438 159.554 438 140.5V140.5Z" fill="#1731F6" fill-opacity="0.3"/>
<path d="M147 69C147 30.8923 177.892 0 216 0V0C254.108 0 285 30.8924 285 69V91C285 129.108 254.108 160 216 160V160C177.892 160 147 129.108 147 91V69Z" fill="#6572D2"/>
<path d="M180 63C180 43.1177 196.118 27 216 27V27C235.882 27 252 43.1177 252 63V84C252 103.882 235.882 120 216 120V120C196.118 120 180 103.882 180 84V63Z" fill="white"/>
<path d="M333 69C333 30.8923 363.892 0 402 0V0C440.108 0 471 30.8924 471 69V91C471 129.108 440.108 160 402 160V160C363.892 160 333 129.108 333 91V69Z" fill="#6572D2"/>
<path d="M366 63C366 43.1177 382.118 27 402 27V27C421.882 27 438 43.1177 438 63V84C438 103.882 421.882 120 402 120V120C382.118 120 366 103.882 366 84V63Z" fill="white"/>
</svg>
