<svg width="74" height="74" viewBox="0 0 74 74" fill="none" xmlns="http://www.w3.org/2000/svg">
<path d="M15.4167 64.75H58.5833C60.2188 64.75 61.7873 64.1003 62.9438 62.9439C64.1003 61.7874 64.75 60.2189 64.75 58.5834V24.6667C64.7523 24.2609 64.6746 23.8587 64.5211 23.483C64.3677 23.1073 64.1416 22.7657 63.8558 22.4776L51.5225 10.1442C51.2344 9.85845 50.8927 9.63236 50.517 9.47892C50.1414 9.32548 49.7391 9.24771 49.3333 9.25005H15.4167C13.7812 9.25005 12.2126 9.89975 11.0562 11.0562C9.8997 12.2127 9.25 13.7812 9.25 15.4167V58.5834C9.25 60.2189 9.8997 61.7874 11.0562 62.9439C12.2126 64.1003 13.7812 64.75 15.4167 64.75ZM46.25 58.5834H27.75V43.1667H46.25V58.5834ZM40.0833 21.5834H33.9167V15.4167H40.0833V21.5834ZM15.4167 15.4167H21.5833V27.7501H46.25V15.4167H48.0692L58.5833 25.9309V58.5834H52.4167V43.1667C52.4167 41.5312 51.767 39.9627 50.6105 38.8062C49.454 37.6498 47.8855 37.0001 46.25 37.0001H27.75C26.1145 37.0001 24.546 37.6498 23.3895 38.8062C22.233 39.9627 21.5833 41.5312 21.5833 43.1667V58.5834H15.4167V15.4167Z" fill="#6572D2"/>
</svg>
